# xmcd CD database file
#
# Track frame offsets:
#	150
#	27826
#	56500
#	93695
#	135082
#	178901
#	240161
#	266132
#	300382
#
# Disc length: 4379 seconds
#
# Revision: 0
# Processed by: cddbd v1.5.1PL0 Copyright (c) Steve Scherf et al.
# Submitted via: CDex 1.50
#
DISCID=6c111909
DTITLE=Don Pullen - Mosaic Select 13 Disc 1
DYEAR=2005
DGENRE=Jazz
TTITLE0=Mr. Smoothie
TTITLE1=Just Foolin' Around
TTITLE2=Song From The Old Country
TTITLE3=We've Been Here All The Time
TTITLE4=A Time For Sobriety
TTITLE5=The Necessary Blues (or Thank You Vry Much, Mr. Monk)
TTITLE6=Sun Watchers
TTITLE7=Serenade To Sariah
TTITLE8=1529 Gunn Street (For Johnny Holloway)
EXTD=YEAR: 2005
EXTT0=
EXTT1=
EXTT2=
EXTT3=
EXTT4=
EXTT5=
EXTT6=
EXTT7=
EXTT8=
PLAYORDER=
